<?xml version="1.0"?>
<svg xmlns="http://www.w3.org/2000/svg" xmlns:xlink="http://www.w3.org/1999/xlink" xmlns:svgjs="http://svgjs.com/svgjs" version="1.1" width="512" height="512" x="0" y="0" viewBox="0 0 512 512" style="enable-background:new 0 0 512 512" xml:space="preserve" class=""><g transform="matrix(1,0,0,1,80,0)"><path xmlns="http://www.w3.org/2000/svg" d="m145.617188 291.636719v65.351562c0 7.675781-6.222657 13.898438-13.898438 13.898438h-18.242188c-40.496093 0-73.324218 32.824219-73.324218 73.3125v60.289062h277.222656v-60.289062c0-40.488281-32.828125-73.3125-73.324219-73.3125h-18.242187c-7.675782 0-13.898438-6.222657-13.898438-13.898438v-65.351562zm0 0" fill="#ffe4c2" data-original="#ffe4c2" style="" class=""/><path xmlns="http://www.w3.org/2000/svg" d="m244.050781 370.886719h-18.242187c-7.675782 0-13.898438-6.222657-13.898438-13.898438v-65.351562h-33.050781v76.371093c0 7.671876 6.222656 13.894532 13.898437 13.894532h18.242188c40.496094 0 73.324219 32.824218 73.324219 73.3125v49.273437h33.050781v-60.289062c0-40.488281-32.828125-73.3125-73.324219-73.3125zm0 0" fill="#ffd7a6" data-original="#ffd7a6" style="" class=""/><path xmlns="http://www.w3.org/2000/svg" d="m211.824219 357.074219-33.050781 48.074219-33.21875-46.898438c-.636719 7.082031-6.585938 12.636719-13.835938 12.636719h-18.242188c-40.496093 0-73.324218 32.824219-73.324218 73.3125v60.289062h277.222656v-60.289062c0-40.488281-32.828125-73.3125-73.324219-73.3125h-18.242187c-7.675782 0-13.898438-6.222657-13.898438-13.894531" fill="#253ab7" data-original="#7f8294" style="" class=""/><path xmlns="http://www.w3.org/2000/svg" d="m244.050781 370.886719h-18.242187c-7.675782 0-13.898438-6.222657-13.898438-13.898438l-.085937.085938-17.070313 24.828125h16.246094c40.496094 0 73.324219 32.824218 73.324219 73.3125v49.273437h33.050781v-60.289062c0-40.488281-32.828125-73.3125-73.324219-73.3125zm0 0" fill="#0323d1" data-original="#6d7080" style="" class=""/><path xmlns="http://www.w3.org/2000/svg" d="m236.199219 460.730469h41.234375c3.433594 0 5.847656 3.375 4.742187 6.625l-8.609375 25.253906c-2.484375 7.289063-9.332031 12.1875-17.035156 12.1875-7.835938 0-14.773438-5.070313-17.148438-12.539063l-7.957031-25c-1.027343-3.230468 1.382813-6.527343 4.773438-6.527343zm0 0" fill="#ffc250" data-original="#ffc250" style="" class=""/><path xmlns="http://www.w3.org/2000/svg" d="m178.773438 404.648438 16.90625 19.980468c2.710937 3.203125 7.628906 3.277344 10.4375.15625l40.925781-45.46875c4.117187-4.578125 3.171875-11.753906-1.996094-15.101562l-18.949219-12.292969c-4.585937-2.976563-10.710937-1.722656-13.761718 2.8125zm0 0" fill="#87d5ff" data-original="#87d5ff" style=""/><path xmlns="http://www.w3.org/2000/svg" d="m51.082031 123.222656s-49.074219 40.0625-43.066406 111.167969c6.859375 81.136719 76.117187 102.15625 116.675781 74.613281h107.152344c2.175781 1.476563 4.429688 2.8125 6.753906 4.003906 41.050782 21.113282 103.433594-1.828124 109.921875-78.617187 6.007813-71.105469-43.0625-111.167969-43.0625-111.167969zm0 0" fill="#d19a6e" data-original="#d19a6e" style="" class=""/><path xmlns="http://www.w3.org/2000/svg" d="m68.636719 240.136719c-16.234375 0-29.394531-13.160157-29.394531-29.394531 0-16.234376 13.160156-29.394532 29.394531-29.394532h220.253906c16.234375 0 29.398437 13.160156 29.398437 29.394532 0 16.234374-13.164062 29.394531-29.398437 29.394531zm0 0" fill="#ffc250" data-original="#ffc250" style="" class=""/><path xmlns="http://www.w3.org/2000/svg" d="m281.75 118.214844v101.292968c0 56.878907-46.109375 102.984376-102.984375 102.984376h-.015625c-56.867188 0-102.972656-46.101563-102.972656-102.96875v-101.308594" fill="#ffe4c2" data-original="#ffe4c2" style="" class=""/><path xmlns="http://www.w3.org/2000/svg" d="m248.699219 118.214844v112.3125c0 39.285156-22 73.429687-54.351563 90.792968 49.480469-7.511718 87.402344-50.230468 87.402344-101.8125v-101.292968zm0 0" fill="#ffd7a6" data-original="#ffd7a6" style="" class=""/><path xmlns="http://www.w3.org/2000/svg" d="m236.46875 310.601562h-17.054688c-8.308593 0-15.046874-6.738281-15.046874-15.046874 0-8.308594 6.738281-15.042969 15.046874-15.042969h17.054688c8.308594 0 15.046875 6.734375 15.046875 15.042969 0 8.308593-6.738281 15.046874-15.046875 15.046874zm0 0" fill="#ffc250" data-original="#ffc250" style="" class=""/><path xmlns="http://www.w3.org/2000/svg" d="m306.316406 124.246094s-51.347656 41.378906-128.046875 41.378906-127.039062-42.386719-127.039062-42.386719zm0 0" fill="#87d5ff" data-original="#87d5ff" style=""/><path xmlns="http://www.w3.org/2000/svg" d="m306.316406 124.246094s0-7.949219 0-26.222656c0-24.800782-17.039062-52.664063-60.433594-52.664063-26.410156 0-28.253906-38.695313-66.605468-38.695313h-1.007813c-40.367187 0-40.195312 38.695313-66.605469 38.695313-43.394531 0-60.433593 34.390625-60.433593 52.664063v26.222656zm0 0" fill="#253ab7" data-original="#7f8294" style="" class=""/><path xmlns="http://www.w3.org/2000/svg" d="m245.882812 45.359375c-26.410156 0-28.253906-38.695313-66.605468-38.695313h-1.007813c-14.25 0-23.445312 4.824219-30.546875 11.066407 36.882813 1.007812 39.050782 38.644531 65.109375 38.644531 43.394531 0 60.433594 27.863281 60.433594 52.664062v15.207032h33.050781s0-7.949219 0-26.222656c0-24.800782-17.039062-52.664063-60.433594-52.664063zm0 0" fill="#0323d1" data-original="#6d7080" style="" class=""/><path xmlns="http://www.w3.org/2000/svg" d="m159.082031 55.121094h41.238281c3.429688 0 5.84375 3.375 4.738282 6.625l-8.609375 25.25c-2.484375 7.292968-9.332031 12.191406-17.035157 12.191406-7.835937 0-14.773437-5.070312-17.148437-12.539062l-7.953125-25c-1.027344-3.230469 1.378906-6.527344 4.769531-6.527344zm0 0" fill="#ffc250" data-original="#ffc250" style="" class=""/><path xmlns="http://www.w3.org/2000/svg" d="m178.773438 404.648438-14.621094 17.277343c-3.917969 4.632813-11.027344 4.742188-15.089844.230469l-38.554688-42.839844c-4.121093-4.578125-3.171874-11.753906 1.992188-15.101562l18.949219-12.292969c4.585937-2.976563 10.710937-1.722656 13.761719 2.8125zm0 0" fill="#87d5ff" data-original="#87d5ff" style=""/><path xmlns="http://www.w3.org/2000/svg" d="m313.828125 120.660156v-22.636718c0-29.953126-21.007813-60.175782-67.945313-60.175782-8.160156 0-12.984374-5.085937-20.804687-14.078125-27.625-31.742187-66.597656-31.796875-93.679687.46875-7.296876 8.691407-11.8125 13.609375-19.734376 13.609375-33.113281 0-67.945312 24.15625-67.945312 60.175782v21.699218c-6.03125 5.613282-21.164062 21.285156-31.964844 46.070313-3.777344 8.667969 9.898438 14.890625 13.773438 6 8.4375-19.363281 19.972656-32.613281 26.09375-38.789063 3.714844 2.691406 9.324218 6.492188 16.644531 10.691406v30.148438c-20.179687.203125-36.535156 16.671875-36.535156 36.898438 0 20.347656 16.554687 36.902343 36.90625 36.902343h3.265625c6.371094 24.191407 20.757812 45.15625 40.140625 59.882813-16.367188 7.484375-35.949219 7.308594-53.125-.882813-14.5-6.914062-39.417969-25.578125-43.414063-72.886719-.882812-10.417968-.550781-20.773437.984375-30.777343 1.472657-9.601563-13.375-11.878907-14.847656-2.277344-1.7148438 11.175781-2.085937 22.722656-1.105469 34.320313 3.378906 40.011718 22.304688 71.058593 51.914063 85.183593 10.925781 5.207031 22.65625 7.78125 34.25 7.78125 14.011719 0 27.820312-3.761719 39.75-11.171875 3.761719 2.03125 7.652343 3.851563 11.65625 5.441406v16.972657c-.855469.1875-39.535157 25.0625-39.535157 25.0625-.289062.191406-.558593.40625-.820312.628906-37.070312 7.339844-65.109375 40.089844-65.109375 79.277344v60.289062c0 4.148438 3.363281 7.511719 7.511719 7.511719h44.480468c9.6875 0 9.6875-15.023438 0-15.023438h-36.96875v-52.777343c0-31.914063 22.84375-58.585938 53.039063-64.546875l50.453125 56.058594c2.976562 3.308593 8.441406 3.226562 11.316406-.171876l8.789063-10.386718v71.824218h-51.578125c-9.6875 0-9.6875 15.023438 0 15.023438h197.691406c4.144531 0 7.507812-3.363281 7.507812-7.511719v-60.289062c0-39.175781-28.023437-71.921875-65.082031-79.269531-.257812-.226563-.53125-.445313-.824219-.636719 0 0-38.691406-24.882813-39.558593-25.070313v-16.921875c3.164062-1.25 6.265625-2.648437 9.300781-4.1875 5.480469-.90625 11.808594 4.242188 16.886719 5.949219 6.375 2.140625 13.042969 3.472656 19.765625 3.847656 14.933594.828125 29.992187-2.703125 43.074218-9.949218 15.886719-8.796876 43.191407-31.273438 47.558594-82.9375 5.363282-63.449219-30.375-103.117188-42.175781-114.363282zm-24.9375 111.964844h-.417969c.519532-4.34375.789063-8.726562.789063-13.117188v-30.640624c11.894531.199218 21.511719 9.933593 21.511719 21.875.003906 12.066406-9.816407 21.882812-21.882813 21.882812zm-230.148437-134.601562c0-27.558594 28.136718-45.152344 52.921874-45.152344 15.3125 0 23.773438-10.082032 31.238282-18.976563 21.222656-25.28125 49-25.363281 70.84375-.261719 7.84375 9.015626 16.738281 19.234376 32.136718 19.234376 39.0625 0 52.921876 24.324218 52.921876 45.15625v18.660156l-30.847657-.203125c-9.351562.046875-10.34375 15.042969-.085937 15.09375l12.886718.0625c-21.230468 11.550781-57.390624 26.476562-102.488281 26.476562-45.113281 0-81.03125-15.425781-101.957031-27.265625l153.507812.605469c9.886719 0 9.964844-15.109375.074219-15.167969h-171.152343zm-11.988282 112.71875c0-11.941407 9.617188-21.675782 21.511719-21.875v30.652343c0 4.433594.273437 8.804688.78125 13.105469h-.410156c-12.066407 0-21.882813-9.816406-21.882813-21.882812zm36.535156 8.777343v-67.972656c22.90625 10.875 55.484376 21.585937 94.980469 21.585937 39.789063 0 72.800781-10.621093 95.96875-21.316406v67.691406c0 15.65625-3.871093 31.179688-11.191406 44.894532-4.578125 8.570312 8.722656 15.554687 13.25 7.074218 4.027344-7.539062 7.140625-15.554687 9.3125-23.832031 1.992187.03125 4.03125.035157 6.015625-.109375v30.554688c0 6.59375-5.367188 11.960937-11.960938 11.960937h-21.320312c-2.464844-9.789062-11.335938-17.054687-21.875-17.054687h-17.054688c-12.4375 0-22.558593 10.121094-22.558593 22.558594 0 6.324218 2.621093 12.046874 6.832031 16.148437-8.035156 2.160156-16.402344 3.277344-24.9375 3.277344-52.636719.003906-95.460938-42.820313-95.460938-95.460938zm136.125 83.570313c-4.15625 0-7.535156-3.378906-7.535156-7.535156 0-4.152344 3.378906-7.535157 7.535156-7.535157h17.054688c4.152344 0 7.535156 3.382813 7.535156 7.535157 0 4.15625-3.382812 7.535156-7.535156 7.535156zm24.007813 69.019531-42.441406 47.152344-12.804688-15.132813 31.765625-47.246094zm-129.292969 0 23.476563-15.226563 31.765625 47.246094-12.804688 15.132813zm132.410156 117.871094-6.917968-21.738281h34.316406l-7.480469 21.941406c-1.171875 3.429687-3.996093 5.949218-7.40625 6.792968h-5.058593c-3.480469-.859374-6.328126-3.457031-7.453126-6.996093zm63.324219-45.78125v52.777343h-29.945312c.277343-.632812.53125-1.28125.757812-1.945312l10.867188-31.875c1.636719-4.796875-2.042969-9.9375-7.109375-9.9375h-55.082032c-5.007812 0-8.679687 5.019531-7.160156 9.789062l10.03125 31.527344c.269532.839844.589844 1.648438.933594 2.441406h-46.871094v-71.824218l8.789063 10.386718c2.875 3.402344 8.335937 3.480469 11.316406.171876l50.449219-56.054688c30.1875 5.96875 53.023437 32.636719 53.023437 64.542969zm-105.464843-91.121094-25.625 38.109375-25.644532-38.140625v-26.050781c8.230469 1.964844 16.8125 3.007812 25.636719 3.007812 8.738281 0 17.328125-1.015625 25.632813-2.984375zm136.636718-119.320313c-2.800781 33.136719-16.957031 58.375-39.867187 71.0625-14.792969 8.191407-32.304688 10.175782-47.96875 5.851563 1.5-1.664063 2.753906-3.546875 3.714843-5.597656h22.75c14.878907 0 26.984376-12.105469 26.984376-26.984375v-35.007813c11.402343-6.285156 19.148437-18.421875 19.148437-32.339843 0-20.226563-16.355469-36.695313-36.535156-36.894532v-29.644531c7.28125-4.042969 12.871093-7.691406 16.570312-10.269531 4.402344 4.546875 11.003907 12.183594 17.300781 22.621094 14.214844 23.570312 20.238282 49.546874 17.902344 77.203124zm0 0" fill="#000000" data-original="#000000" style="" class=""/><path xmlns="http://www.w3.org/2000/svg" d="m207.316406 47.609375h-55.082031c-2.398437 0-4.648437 1.144531-6.0625 3.078125s-1.820313 4.429688-1.097656 6.710938l10.03125 31.527343c3.386719 10.632813 13.152343 17.773438 24.308593 17.773438 10.917969 0 20.621094-6.941407 24.144532-17.277344l10.867187-31.875c.78125-2.292969.410157-4.824219-1-6.796875-1.410156-1.96875-3.683593-3.140625-6.109375-3.140625zm-17.976562 36.964844c-1.449219 4.25-5.4375 7.101562-9.925782 7.101562-4.585937 0-8.601562-2.933593-9.992187-7.304687l-6.917969-21.738282h34.316406zm0 0" fill="#000000" data-original="#000000" style="" class=""/><script/></g></svg>
