<?xml version="1.0"?>
<svg xmlns="http://www.w3.org/2000/svg" xmlns:xlink="http://www.w3.org/1999/xlink" xmlns:svgjs="http://svgjs.com/svgjs" version="1.1" width="512" height="512" x="0" y="0" viewBox="0 0 512 512" style="enable-background:new 0 0 512 512" xml:space="preserve" class=""><g transform="matrix(1.12,0,0,1.12,-30.720000000000027,-50.72000091552695)">
<g xmlns="http://www.w3.org/2000/svg">
	<g>
		<path d="M386.66,406.251l72.498-72.498L201.155,75.749L28.862,248.042L187.07,406.251H0v30h512v-30H386.66z M398.321,315.342    l-164.789-13.966l-13.965-164.788L398.321,315.342z M188.935,130.397l8.489,100.172l-110.516,1.854L188.935,130.397z     M273.18,406.251h-43.685L85.693,262.447l114.27-1.916l5.813,68.6l68.6,5.814L273.18,406.251z M303.185,406.251l1.153-68.767    l100.174,8.489l-60.278,60.278H303.185z" fill="#ffffff" data-original="#000000" style="" class=""/>
	</g>
</g>
<g xmlns="http://www.w3.org/2000/svg">
</g>
<g xmlns="http://www.w3.org/2000/svg">
</g>
<g xmlns="http://www.w3.org/2000/svg">
</g>
<g xmlns="http://www.w3.org/2000/svg">
</g>
<g xmlns="http://www.w3.org/2000/svg">
</g>
<g xmlns="http://www.w3.org/2000/svg">
</g>
<g xmlns="http://www.w3.org/2000/svg">
</g>
<g xmlns="http://www.w3.org/2000/svg">
</g>
<g xmlns="http://www.w3.org/2000/svg">
</g>
<g xmlns="http://www.w3.org/2000/svg">
</g>
<g xmlns="http://www.w3.org/2000/svg">
</g>
<g xmlns="http://www.w3.org/2000/svg">
</g>
<g xmlns="http://www.w3.org/2000/svg">
</g>
<g xmlns="http://www.w3.org/2000/svg">
</g>
<g xmlns="http://www.w3.org/2000/svg">
</g>
<script/></g></svg>
