<?xml version="1.0"?>
<svg xmlns="http://www.w3.org/2000/svg" xmlns:xlink="http://www.w3.org/1999/xlink" xmlns:svgjs="http://svgjs.com/svgjs" version="1.1" width="512" height="512" x="0" y="0" viewBox="0 0 512 512" style="enable-background:new 0 0 512 512" xml:space="preserve" class=""><g><path xmlns="http://www.w3.org/2000/svg" d="m222.287 278.4 116.154-116.155a8 8 0 0 1 11.313 11.315l-116.154 116.153 85.551 185.36 163.395-445.619-445.619 163.394z" fill="#4169e1" data-original="#000000" style="" class=""/><path xmlns="http://www.w3.org/2000/svg" d="m96 424a8 8 0 0 1 -5.657-13.657l96-96a8 8 0 1 1 11.314 11.314l-96 96a7.976 7.976 0 0 1 -5.657 2.343z" fill="#4169e1" data-original="#000000" style="" class=""/><path xmlns="http://www.w3.org/2000/svg" d="m32 400a8 8 0 0 1 -5.657-13.657l96-96a8 8 0 0 1 11.314 11.314l-96 96a7.976 7.976 0 0 1 -5.657 2.343z" fill="#4169e1" data-original="#000000" style="" class=""/><path xmlns="http://www.w3.org/2000/svg" d="m120 488a8 8 0 0 1 -5.657-13.657l96-96a8 8 0 1 1 11.314 11.314l-96 96a7.976 7.976 0 0 1 -5.657 2.343z" fill="#4169e1" data-original="#000000" style="" class=""/><script/></g></svg>
