<?xml version="1.0"?>
<svg xmlns="http://www.w3.org/2000/svg" xmlns:xlink="http://www.w3.org/1999/xlink" xmlns:svgjs="http://svgjs.com/svgjs" version="1.1" width="512" height="512" x="0" y="0" viewBox="0 0 652.801 652.801" style="enable-background:new 0 0 512 512" xml:space="preserve" class=""><g>
<g xmlns="http://www.w3.org/2000/svg">
	<g id="_x35__39_">
		<g>
			<path d="M142.8,367.199h40.8V326.4h-40.8V367.199z M142.8,530.4h40.8V489.6h-40.8V530.4z M550.801,40.8H469.2V20.4     c0-11.261-9.139-20.4-20.399-20.4s-20.4,9.139-20.4,20.4v20.4h-204V20.4C224.4,9.139,215.261,0,204,0s-20.4,9.139-20.4,20.4v20.4     H102c-45.063,0-81.6,36.537-81.6,81.6v448.799c0,45.064,36.537,81.602,81.6,81.602h448.8c45.063,0,81.6-36.537,81.6-81.602V122.4     C632.4,77.336,595.864,40.8,550.801,40.8z M224.4,530.4c0,22.541-18.258,40.799-40.8,40.799h-40.8     c-22.542,0-40.8-18.258-40.8-40.799V489.6c0-22.541,18.258-40.799,40.8-40.799h40.8c22.542,0,40.8,18.258,40.8,40.799V530.4z      M224.4,367.199c0,22.521-18.258,40.801-40.8,40.801h-40.8c-22.542,0-40.8-18.279-40.8-40.801V326.4     c0-22.542,18.258-40.8,40.8-40.8h40.8c22.542,0,40.8,18.258,40.8,40.8V367.199z M387.601,530.4     c0,22.541-18.258,40.799-40.8,40.799H306c-22.521,0-40.8-18.258-40.8-40.799V489.6c0-22.541,18.279-40.799,40.8-40.799h40.8     c22.542,0,40.8,18.258,40.8,40.799V530.4z M387.601,367.199c0,22.521-18.258,40.801-40.8,40.801H306     c-22.521,0-40.8-18.279-40.8-40.801V326.4c0-22.542,18.279-40.8,40.8-40.8h40.8c22.542,0,40.8,18.258,40.8,40.8V367.199z      M550.801,530.4c0,22.541-18.259,40.799-40.801,40.799h-40.8c-22.521,0-40.8-18.258-40.8-40.799V489.6     c0-22.541,18.278-40.799,40.8-40.799H510c22.542,0,40.801,18.258,40.801,40.799V530.4z M550.801,367.199     C550.801,389.721,532.542,408,510,408h-40.8c-22.521,0-40.8-18.279-40.8-40.801V326.4c0-22.542,18.278-40.8,40.8-40.8H510     c22.542,0,40.801,18.258,40.801,40.8V367.199z M591.601,163.2H61.2v-40.8c0-22.542,18.258-40.8,40.8-40.8h81.6V102     c0,11.261,9.139,20.4,20.4,20.4s20.4-9.139,20.4-20.4V81.6h204V102c0,11.261,9.14,20.4,20.4,20.4S469.2,113.261,469.2,102V81.6     h81.601c22.542,0,40.8,18.258,40.8,40.8V163.2z M469.2,367.199H510V326.4h-40.8V367.199z M469.2,530.4H510V489.6h-40.8V530.4z      M306,530.4h40.8V489.6H306V530.4z M306,367.199h40.8V326.4H306V367.199z" fill="#5D0BF7" data-original="#000000" style="" class=""/>
		</g>
	</g>
</g>
<g xmlns="http://www.w3.org/2000/svg">
</g>
<g xmlns="http://www.w3.org/2000/svg">
</g>
<g xmlns="http://www.w3.org/2000/svg">
</g>
<g xmlns="http://www.w3.org/2000/svg">
</g>
<g xmlns="http://www.w3.org/2000/svg">
</g>
<g xmlns="http://www.w3.org/2000/svg">
</g>
<g xmlns="http://www.w3.org/2000/svg">
</g>
<g xmlns="http://www.w3.org/2000/svg">
</g>
<g xmlns="http://www.w3.org/2000/svg">
</g>
<g xmlns="http://www.w3.org/2000/svg">
</g>
<g xmlns="http://www.w3.org/2000/svg">
</g>
<g xmlns="http://www.w3.org/2000/svg">
</g>
<g xmlns="http://www.w3.org/2000/svg">
</g>
<g xmlns="http://www.w3.org/2000/svg">
</g>
<g xmlns="http://www.w3.org/2000/svg">
</g>
</g></svg>
