<?xml version="1.0"?>
<svg xmlns="http://www.w3.org/2000/svg" xmlns:xlink="http://www.w3.org/1999/xlink" xmlns:svgjs="http://svgjs.com/svgjs" version="1.1" width="512" height="512" x="0" y="0" viewBox="0 0 612 612" style="enable-background:new 0 0 512 512" xml:space="preserve" class=""><g>
<g xmlns="http://www.w3.org/2000/svg">
	<g>
		<g>
			<path d="M306,219.104c-53.782,0-97.533,43.753-97.533,97.533c0,10.263,8.321,18.584,18.584,18.584s18.584-8.321,18.584-18.584     c0-33.286,27.079-60.366,60.366-60.366c10.263,0,18.584-8.321,18.584-18.584C324.584,227.425,316.263,219.104,306,219.104z" fill="#ffffff" data-original="#000000" style="" class=""/>
			<path d="M593.416,172.033h-106.75L385.631,86.678c-3.354-2.832-7.601-4.387-11.993-4.387H238.362     c-4.389,0-8.638,1.555-11.993,4.387l-101.033,85.356H18.584C8.321,172.033,0,180.353,0,190.617v320.509     c0,10.263,8.321,18.584,18.584,18.584h574.833c10.263,0,18.584-8.321,18.584-18.584V190.617     C612,180.354,603.678,172.033,593.416,172.033z M574.833,492.543H37.167V288.912h106.88c-1.539,9.016-2.351,18.277-2.351,27.725     c0,90.598,73.706,164.305,164.303,164.305s164.307-73.707,164.307-164.305c0-9.45-0.813-18.709-2.354-27.725h106.88V492.543z      M306,443.775c-70.103,0-127.136-57.033-127.136-127.138c0-70.103,57.033-127.136,127.136-127.136     c70.107,0,127.139,57.033,127.139,127.136C433.138,386.742,376.105,443.775,306,443.775z M37.167,209.201h94.968     c4.389,0,8.638-1.555,11.993-4.389l101.033-85.354h121.676l101.036,85.354c3.354,2.834,7.601,4.389,11.993,4.389h94.965v42.544     H456.931c-25.21-58.417-83.372-99.41-150.934-99.41c-67.584,0-125.76,41.02-150.959,99.465c-0.359-0.02-0.717-0.054-1.082-0.054     H37.167V209.201z" fill="#ffffff" data-original="#000000" style="" class=""/>
		</g>
	</g>
</g>
<g xmlns="http://www.w3.org/2000/svg">
</g>
<g xmlns="http://www.w3.org/2000/svg">
</g>
<g xmlns="http://www.w3.org/2000/svg">
</g>
<g xmlns="http://www.w3.org/2000/svg">
</g>
<g xmlns="http://www.w3.org/2000/svg">
</g>
<g xmlns="http://www.w3.org/2000/svg">
</g>
<g xmlns="http://www.w3.org/2000/svg">
</g>
<g xmlns="http://www.w3.org/2000/svg">
</g>
<g xmlns="http://www.w3.org/2000/svg">
</g>
<g xmlns="http://www.w3.org/2000/svg">
</g>
<g xmlns="http://www.w3.org/2000/svg">
</g>
<g xmlns="http://www.w3.org/2000/svg">
</g>
<g xmlns="http://www.w3.org/2000/svg">
</g>
<g xmlns="http://www.w3.org/2000/svg">
</g>
<g xmlns="http://www.w3.org/2000/svg">
</g>
<script/></g></svg>
