<?xml version="1.0"?>
<svg xmlns="http://www.w3.org/2000/svg" xmlns:xlink="http://www.w3.org/1999/xlink" xmlns:svgjs="http://svgjs.com/svgjs" version="1.1" width="512" height="512" x="0" y="0" viewBox="0 0 256 256" style="enable-background:new 0 0 512 512" xml:space="preserve" class=""><g><path xmlns="http://www.w3.org/2000/svg" d="m10.869 168.434h234.262a2.869 2.869 0 0 1 2.869 2.866v13.124a6 6 0 0 1 -6 6h-228a6 6 0 0 1 -6-6v-13.124a2.869 2.869 0 0 1 2.869-2.869z" fill="#0a5cfd" data-original="#4671c6" style="" class=""/><path xmlns="http://www.w3.org/2000/svg" d="m242 192.426h-228a8.009 8.009 0 0 1 -8-8v-13.126a4.874 4.874 0 0 1 4.869-4.868h234.263a4.874 4.874 0 0 1 4.868 4.868v13.124a8.009 8.009 0 0 1 -8 8.002zm-231.131-21.992a.87.87 0 0 0 -.869.866v13.124a4 4 0 0 0 4 4h228a4 4 0 0 0 4-4v-13.124a.87.87 0 0 0 -.868-.868z" fill="#000104" data-original="#3762cc" style="" class=""/><path xmlns="http://www.w3.org/2000/svg" d="m107.272 65.065h7.891a6 6 0 0 1 6 6v16.122a0 0 0 0 1 0 0h-19.891a0 0 0 0 1 0 0v-16.122a6 6 0 0 1 6-6z" fill="#e50b0b" data-original="#f9a7a7" style="" class=""/><path xmlns="http://www.w3.org/2000/svg" d="m242.741 141.976v26.458h-229.482v-31.881a8 8 0 0 1 6.794-7.909l17.6-2.683a6 6 0 0 0 4.482-3.287l13.58-27.657a14 14 0 0 1 12.567-7.83h76.263a14 14 0 0 1 9.318 3.551c40.912 36.483 38.28 34.641 40.7 35.027l39.745 6.335a10 10 0 0 1 8.433 9.876z" fill="#ffffff" data-original="#e0ebfc" style="" class=""/><path xmlns="http://www.w3.org/2000/svg" d="m57.023 125.193h-17.223c-1.378.813-.5.518-19.742 3.451a8 8 0 0 0 -6.794 7.909v31.881h66.33c-23.438-45.511-20.062-39.175-22.571-43.241z" fill="#0a5cfd" data-original="#4671c6" style="" class=""/><path xmlns="http://www.w3.org/2000/svg" d="m170.853 168.434h71.888v-26.458a10 10 0 0 0 -8.426-9.876c-43.33-6.906-40.276-6.295-41.492-6.907h-21.97z" fill="#0a5cfd" data-original="#4671c6" style="" class=""/><path xmlns="http://www.w3.org/2000/svg" d="m217.562 141.946h25.179a0 0 0 0 1 0 0v17.211a0 0 0 0 1 0 0h-19.6a8.446 8.446 0 0 1 -8.446-8.446v-5.9a2.869 2.869 0 0 1 2.867-2.865z" fill="#ffea92" data-original="#ffea92" style=""/><path xmlns="http://www.w3.org/2000/svg" d="m76.892 94.488h-7.7a4.282 4.282 0 0 0 -3.935 2.593l-11.47 26.719a1 1 0 0 0 .918 1.394h22.187a2.14 2.14 0 0 0 2.141-2.141v-26.424a2.14 2.14 0 0 0 -2.141-2.141z" fill="#a4c9ff" data-original="#a4c9ff" style=""/><rect xmlns="http://www.w3.org/2000/svg" fill="#a4c9ff" height="30.705" rx="2.141" width="33.776" x="86.245" y="94.488" data-original="#a4c9ff" style=""/><path xmlns="http://www.w3.org/2000/svg" d="m101.272 79.693h19.891v7.494h-19.891z" fill="#0a5cfd" data-original="#4671c6" style="" class=""/><path xmlns="http://www.w3.org/2000/svg" d="m145.077 94.488h-15.7a2.14 2.14 0 0 0 -2.141 2.141v26.423a2.14 2.14 0 0 0 2.141 2.141h49.089a1 1 0 0 0 .667-1.745l-31.2-27.871a4.275 4.275 0 0 0 -2.856-1.089z" fill="#a4c9ff" data-original="#a4c9ff" style=""/><path xmlns="http://www.w3.org/2000/svg" d="m242.741 170.434h-229.482a2 2 0 0 1 -2-2v-31.881a9.944 9.944 0 0 1 8.493-9.886l17.6-2.683a4 4 0 0 0 2.987-2.192l13.58-27.656a16.1 16.1 0 0 1 14.363-8.948h76.263a15.978 15.978 0 0 1 10.655 4.058c9.143 8.153 16.112 14.392 21.448 19.17 15.3 13.7 17.012 15.21 17.877 15.323.112.014.232.03.364.051l39.745 6.335a11.947 11.947 0 0 1 10.111 11.851v26.458a2 2 0 0 1 -2.004 2zm-227.482-4h225.482v-24.458a7.966 7.966 0 0 0 -6.74-7.9l-40-6.369c-2.122-.276-2.122-.276-20.03-16.31-5.335-4.776-12.3-11.014-21.442-19.165a11.991 11.991 0 0 0 -7.987-3.043h-76.258a12.079 12.079 0 0 0 -10.772 6.711l-13.58 27.657a8 8 0 0 1 -5.975 4.383l-17.6 2.684a5.965 5.965 0 0 0 -5.095 5.931z" fill="#000104" data-original="#3762cc" style="" class=""/><path xmlns="http://www.w3.org/2000/svg" d="m76.892 127.193h-22.186a3 3 0 0 1 -2.757-4.183l11.467-26.718a6.275 6.275 0 0 1 5.772-3.8h7.7a4.146 4.146 0 0 1 4.141 4.141v26.423a4.146 4.146 0 0 1 -4.137 4.137zm-20.669-4h20.669a.141.141 0 0 0 .141-.141v-26.423a.141.141 0 0 0 -.141-.141h-7.7a2.278 2.278 0 0 0 -2.1 1.382z" fill="#000104" data-original="#3762cc" style="" class=""/><path xmlns="http://www.w3.org/2000/svg" d="m117.879 127.193h-29.494a4.145 4.145 0 0 1 -4.14-4.141v-26.423a4.145 4.145 0 0 1 4.14-4.141h29.494a4.146 4.146 0 0 1 4.142 4.141v26.423a4.146 4.146 0 0 1 -4.142 4.141zm-29.494-30.7a.141.141 0 0 0 -.14.141v26.423a.141.141 0 0 0 .14.141h29.494a.142.142 0 0 0 .142-.141v-26.428a.142.142 0 0 0 -.142-.141z" fill="#000104" data-original="#3762cc" style="" class=""/><path xmlns="http://www.w3.org/2000/svg" d="m178.462 127.193h-49.089a4.146 4.146 0 0 1 -4.141-4.141v-26.423a4.146 4.146 0 0 1 4.141-4.141h15.7a6.277 6.277 0 0 1 4.185 1.6l31.2 27.871a3 3 0 0 1 -2 5.237zm-49.089-30.705a.142.142 0 0 0 -.142.141v26.423a.142.142 0 0 0 .142.141h46.469l-29.242-26.125a2.281 2.281 0 0 0 -1.521-.58z" fill="#000104" data-original="#3762cc" style="" class=""/><circle xmlns="http://www.w3.org/2000/svg" cx="186.151" cy="184.585" fill="#a4c9ff" r="28.685" data-original="#a4c9ff" style=""/><circle xmlns="http://www.w3.org/2000/svg" cx="186.151" cy="184.585" fill="#f12020" r="13.769" data-original="#f9cfcf" style="" class=""/><circle xmlns="http://www.w3.org/2000/svg" cx="61.849" cy="184.585" fill="#a4c9ff" r="28.685" data-original="#a4c9ff" style=""/><circle xmlns="http://www.w3.org/2000/svg" cx="61.849" cy="184.585" fill="#f12020" r="13.769" data-original="#f9cfcf" style="" class=""/><path xmlns="http://www.w3.org/2000/svg" d="m186.151 215.271a30.686 30.686 0 1 1 30.686-30.686 30.72 30.72 0 0 1 -30.686 30.686zm0-57.371a26.686 26.686 0 1 0 26.686 26.685 26.715 26.715 0 0 0 -26.686-26.685z" fill="#000104" data-original="#3762cc" style="" class=""/><path xmlns="http://www.w3.org/2000/svg" d="m186.151 200.354a15.769 15.769 0 1 1 15.769-15.769 15.787 15.787 0 0 1 -15.769 15.769zm0-27.538a11.769 11.769 0 1 0 11.769 11.769 11.782 11.782 0 0 0 -11.769-11.769z" fill="#000104" data-original="#3762cc" style="" class=""/><path xmlns="http://www.w3.org/2000/svg" d="m61.849 215.271a30.686 30.686 0 1 1 30.685-30.686 30.72 30.72 0 0 1 -30.685 30.686zm0-57.371a26.686 26.686 0 1 0 26.685 26.685 26.715 26.715 0 0 0 -26.685-26.685z" fill="#000104" data-original="#3762cc" style="" class=""/><path xmlns="http://www.w3.org/2000/svg" d="m61.849 200.354a15.769 15.769 0 1 1 15.769-15.769 15.786 15.786 0 0 1 -15.769 15.769zm0-27.538a11.769 11.769 0 1 0 11.769 11.769 11.782 11.782 0 0 0 -11.769-11.769z" fill="#000104" data-original="#3762cc" style="" class=""/><path xmlns="http://www.w3.org/2000/svg" d="m121.164 89.188h-19.892a2 2 0 0 1 -2-2v-16.123a8.009 8.009 0 0 1 8-8h7.892a8.009 8.009 0 0 1 8 8v16.123a2 2 0 0 1 -2 2zm-17.892-4h15.892v-14.123a4 4 0 0 0 -4-4h-7.892a4.005 4.005 0 0 0 -4 4z" fill="#000104" data-original="#3762cc" style="" class=""/><g xmlns="http://www.w3.org/2000/svg" fill="#4671c6"><path d="m83.332 137.646a3.761 3.761 0 0 0 -1.529-.884 8.2 8.2 0 0 0 -2.34-.26h-3.175a2.18 2.18 0 0 0 -1.609.552 2.275 2.275 0 0 0 -.545 1.675v10.182a2.4 2.4 0 0 0 .478 1.579 1.757 1.757 0 0 0 2.683 0 2.4 2.4 0 0 0 .489-1.6v-3.152h1.679a5.534 5.534 0 0 0 3.819-1.192 4.491 4.491 0 0 0 1.344-3.5 5.434 5.434 0 0 0 -.321-1.909 4 4 0 0 0 -.973-1.491zm-5.548 4.9v-2.862h1.079c1.263 0 1.65.276 1.748.382a1.531 1.531 0 0 1 .331 1.04 1.5 1.5 0 0 1 -.2.848 1.122 1.122 0 0 1 -.6.424 4.08 4.08 0 0 1 -1.275.168z" fill="#0a5cfd" data-original="#4671c6" style="" class=""/><path d="m95.048 137.2a6.736 6.736 0 0 0 -3.569-.92 6.878 6.878 0 0 0 -2.732.521 5.674 5.674 0 0 0 -2.08 1.522 6.734 6.734 0 0 0 -1.285 2.367 9.8 9.8 0 0 0 -.432 2.972 10.155 10.155 0 0 0 .413 2.937 6.781 6.781 0 0 0 1.257 2.4 5.7 5.7 0 0 0 2.1 1.571 7.479 7.479 0 0 0 5.6.015 5.645 5.645 0 0 0 2.1-1.568 6.775 6.775 0 0 0 1.261-2.376 10.131 10.131 0 0 0 .409-2.956 9.25 9.25 0 0 0 -.753-3.852 5.855 5.855 0 0 0 -2.289-2.633zm-5.539 9.64a3.714 3.714 0 0 1 -.635-1.305 6.775 6.775 0 0 1 -.24-1.873 6.627 6.627 0 0 1 .239-1.849 3.751 3.751 0 0 1 .615-1.275 2.454 2.454 0 0 1 .875-.712 2.558 2.558 0 0 1 1.116-.244 2.617 2.617 0 0 1 1.517.444 2.865 2.865 0 0 1 1.023 1.344 6.1 6.1 0 0 1 .389 2.292 6.035 6.035 0 0 1 -.421 2.4 2.927 2.927 0 0 1 -1.047 1.328 2.554 2.554 0 0 1 -1.427.42 2.5 2.5 0 0 1 -1.109-.24 2.581 2.581 0 0 1 -.895-.734z" fill="#0a5cfd" data-original="#4671c6" style="" class=""/><path d="m107.062 147.513h-4.429v-9.027a2.4 2.4 0 0 0 -.488-1.6 1.728 1.728 0 0 0 -1.35-.6 1.688 1.688 0 0 0 -1.339.618 2.43 2.43 0 0 0 -.473 1.592v10.173a2.345 2.345 0 0 0 .508 1.649 2.066 2.066 0 0 0 1.6.579h5.975a1.853 1.853 0 0 0 1.329-.465 1.628 1.628 0 0 0 .5-1.213 1.662 1.662 0 0 0 -.5-1.213 1.826 1.826 0 0 0 -1.333-.493z" fill="#0a5cfd" data-original="#4671c6" style="" class=""/><path d="m111.253 136.276a1.692 1.692 0 0 0 -1.333.615 2.418 2.418 0 0 0 -.48 1.595v10.407a2.416 2.416 0 0 0 .484 1.6 1.688 1.688 0 0 0 1.329.62 1.722 1.722 0 0 0 1.351-.612 2.412 2.412 0 0 0 .486-1.607v-10.408a2.4 2.4 0 0 0 -.488-1.6 1.728 1.728 0 0 0 -1.349-.61z" fill="#0a5cfd" data-original="#4671c6" style="" class=""/><path d="m124.6 144.377a1.42 1.42 0 0 0 -1.229.576 3.49 3.49 0 0 0 -.468 1 2.9 2.9 0 0 1 -.917 1.405 2.262 2.262 0 0 1 -1.443.449 2.359 2.359 0 0 1 -1.384-.4 2.643 2.643 0 0 1 -.919-1.258 6.535 6.535 0 0 1 -.36-2.349 5.488 5.488 0 0 1 .793-3.215 2.271 2.271 0 0 1 1.953-1.009 2.043 2.043 0 0 1 1.262.371 3.411 3.411 0 0 1 .96 1.256 3.9 3.9 0 0 0 .637.99 1.61 1.61 0 0 0 2.305-.139 1.79 1.79 0 0 0 .44-1.191 3.867 3.867 0 0 0 -.713-2.1 5.493 5.493 0 0 0 -1.982-1.774 5.979 5.979 0 0 0 -2.926-.713 6.273 6.273 0 0 0 -2.526.518 5.942 5.942 0 0 0 -2.078 1.512 6.8 6.8 0 0 0 -1.348 2.36 9.483 9.483 0 0 0 -.46 3.046 10.3 10.3 0 0 0 .182 1.969 8.168 8.168 0 0 0 .552 1.77 7.261 7.261 0 0 0 .9 1.518 5.6 5.6 0 0 0 1.328 1.233 5.335 5.335 0 0 0 1.615.694 7.88 7.88 0 0 0 1.9.216 5.892 5.892 0 0 0 2.479-.5 5.219 5.219 0 0 0 1.772-1.3 5.588 5.588 0 0 0 1.008-1.614 4.353 4.353 0 0 0 .328-1.579 1.753 1.753 0 0 0 -.478-1.234 1.6 1.6 0 0 0 -1.183-.508z" fill="#0a5cfd" data-original="#4671c6" style="" class=""/><path d="m137.436 148.047a1.768 1.768 0 0 0 -1.293-.462h-5.178v-2.585h4.545a1.692 1.692 0 0 0 1.271-.462 1.6 1.6 0 0 0 .442-1.143 1.56 1.56 0 0 0 -.456-1.145 1.725 1.725 0 0 0 -1.257-.443h-4.545v-2.067h4.987a1.776 1.776 0 0 0 1.293-.453 1.6 1.6 0 0 0 .461-1.171 1.584 1.584 0 0 0 -.464-1.162 1.769 1.769 0 0 0 -1.29-.452h-6.533a2.524 2.524 0 0 0 -1.122.227 1.6 1.6 0 0 0 -.776.825 2.939 2.939 0 0 0 -.207 1.175v9.93a2.347 2.347 0 0 0 .509 1.649 2.065 2.065 0 0 0 1.6.579h6.724a1.769 1.769 0 0 0 1.294-.464 1.619 1.619 0 0 0 .469-1.179 1.643 1.643 0 0 0 -.474-1.197z" fill="#0a5cfd" data-original="#4671c6" style="" class=""/><path d="m141.091 134.607a13.966 13.966 0 0 1 .554 13.852c-.544.909-.753 2.063.21 4.093a8.781 8.781 0 0 0 4.857 4.384l7.288 2.769a1.037 1.037 0 0 0 .736 0l7.291-2.769a8.775 8.775 0 0 0 4.857-4.384c.964-2.03.754-3.184.21-4.093a11.437 11.437 0 0 1 -1.573-6.506 11.277 11.277 0 0 1 2.127-7.346l.767-1.841a.518.518 0 0 0 -.314-.691l-4.43-1.48a.52.52 0 0 0 -.645.3l-.622 1.535a.517.517 0 0 1 -.638.3l-6.438-2.053a3.112 3.112 0 0 0 -1.888 0l-6.47 2.056a.518.518 0 0 1 -.637-.3l-.623-1.535a.52.52 0 0 0 -.645-.3l-4.429 1.48a.518.518 0 0 0 -.315.691z" fill="#0a5cfd" data-original="#4671c6" style="" class=""/></g><path xmlns="http://www.w3.org/2000/svg" d="m147.64 139.919a1 1 0 0 1 -.685-1.729 10.819 10.819 0 0 1 14.831 0 1 1 0 1 1 -1.369 1.457 8.822 8.822 0 0 0 -12.093 0 .99.99 0 0 1 -.684.272z" fill="#ffea92" data-original="#ffea92" style=""/><circle xmlns="http://www.w3.org/2000/svg" cx="154.371" cy="146.975" fill="#ffea92" r="7.165" data-original="#ffea92" style=""/><path xmlns="http://www.w3.org/2000/svg" d="m154.9 142.792.984 1.993a.592.592 0 0 0 .446.325l2.2.319a.593.593 0 0 1 .329 1.012l-1.591 1.551a.593.593 0 0 0 -.171.525l.376 2.191a.594.594 0 0 1 -.861.625l-1.967-1.035a.6.6 0 0 0 -.552 0l-1.967 1.035a.593.593 0 0 1 -.86-.625l.375-2.191a.592.592 0 0 0 -.17-.525l-1.592-1.551a.594.594 0 0 1 .329-1.012l2.2-.319a.592.592 0 0 0 .447-.325l.983-1.993a.594.594 0 0 1 1.062 0z" fill="#eaa97d" data-original="#eaa97d" style="" class=""/><path xmlns="http://www.w3.org/2000/svg" d="m133.4 115.964a2.186 2.186 0 0 1 -1.546-3.732l7.408-7.407a2.186 2.186 0 0 1 3.091 3.091l-7.407 7.408a2.182 2.182 0 0 1 -1.546.64z" fill="#ffffff" data-original="#e0ebfc" style="" class=""/><path xmlns="http://www.w3.org/2000/svg" d="m142.141 115.964a2.186 2.186 0 0 1 -1.545-3.732l7.404-7.407a2.186 2.186 0 1 1 3.091 3.091l-7.407 7.408a2.182 2.182 0 0 1 -1.543.64z" fill="#ffffff" data-original="#e0ebfc" style="" class=""/><path xmlns="http://www.w3.org/2000/svg" d="m95.056 115.73a2.186 2.186 0 0 1 -1.545-3.73l7.407-7.407a2.186 2.186 0 1 1 3.091 3.092l-7.409 7.405a2.178 2.178 0 0 1 -1.544.64z" fill="#ffffff" data-original="#e0ebfc" style="" class=""/><path xmlns="http://www.w3.org/2000/svg" d="m103.8 115.73a2.186 2.186 0 0 1 -1.544-3.73l7.407-7.407a2.186 2.186 0 0 1 3.091 3.092l-7.407 7.407a2.176 2.176 0 0 1 -1.547.638z" fill="#ffffff" data-original="#e0ebfc" style="" class=""/><path xmlns="http://www.w3.org/2000/svg" d="m242.741 161.157h-19.6a10.459 10.459 0 0 1 -10.447-10.446v-5.9a4.874 4.874 0 0 1 4.869-4.869h25.179a2 2 0 0 1 2 2v17.211a2 2 0 0 1 -2.001 2.004zm-25.179-17.211a.87.87 0 0 0 -.869.869v5.9a6.453 6.453 0 0 0 6.447 6.446h17.6v-13.215z" fill="#000104" data-original="#3762cc" style="" class=""/><path xmlns="http://www.w3.org/2000/svg" d="m13.259 141.946h9.408a3 3 0 0 1 3 3v11.6a3 3 0 0 1 -3 3h-9.408a0 0 0 0 1 0 0v-17.6a0 0 0 0 1 0 0z" fill="#ffea92" data-original="#ffea92" style=""/><path xmlns="http://www.w3.org/2000/svg" d="m22.667 161.545h-9.408a2 2 0 0 1 -2-2v-17.6a2 2 0 0 1 2-2h9.408a5.006 5.006 0 0 1 5 5v11.6a5.006 5.006 0 0 1 -5 5zm-7.408-4h7.408a1 1 0 0 0 1-1v-11.6a1 1 0 0 0 -1-1h-7.408z" fill="#000104" data-original="#3762cc" style="" class=""/><path xmlns="http://www.w3.org/2000/svg" d="m125.911 63.406a2.5 2.5 0 0 1 -1.767-4.268l8.252-8.253a2.5 2.5 0 0 1 3.536 3.535l-8.253 8.254a2.493 2.493 0 0 1 -1.768.732z" fill="#f12020" data-original="#f9cfcf" style="" class=""/><path xmlns="http://www.w3.org/2000/svg" d="m139.873 73.565h-11.673a2.5 2.5 0 0 1 0-5h11.671a2.5 2.5 0 0 1 0 5z" fill="#f12020" data-original="#f9cfcf" style="" class=""/><path xmlns="http://www.w3.org/2000/svg" d="m95.874 63.406a2.493 2.493 0 0 1 -1.768-.732l-8.253-8.254a2.5 2.5 0 1 1 3.535-3.535l8.253 8.253a2.5 2.5 0 0 1 -1.767 4.268z" fill="#f12020" data-original="#f9cfcf" style="" class=""/><path xmlns="http://www.w3.org/2000/svg" d="m93.583 73.565h-11.672a2.5 2.5 0 0 1 0-5h11.672a2.5 2.5 0 0 1 0 5z" fill="#f12020" data-original="#f9cfcf" style="" class=""/><path xmlns="http://www.w3.org/2000/svg" d="m111.218 59.4a2.5 2.5 0 0 1 -2.5-2.5v-11.671a2.5 2.5 0 0 1 5 0v11.671a2.5 2.5 0 0 1 -2.5 2.5z" fill="#f12020" data-original="#f9cfcf" style="" class=""/><script/></g></svg>
