<?xml version="1.0"?>
<svg xmlns="http://www.w3.org/2000/svg" xmlns:xlink="http://www.w3.org/1999/xlink" xmlns:svgjs="http://svgjs.com/svgjs" version="1.1" width="512" height="512" x="0" y="0" viewBox="0 0 512.007 512.007" style="enable-background:new 0 0 512 512" xml:space="preserve" class=""><g transform="matrix(0.8,0,0,0.8,51.20059508085251,51.20079994201663)">
<g xmlns="http://www.w3.org/2000/svg">
	<rect x="25.603" y="221.87" style="" width="128" height="256" fill="#ae7a7b" data-original="#ae7a7b" class=""/>
	<rect x="358.404" y="221.87" style="" width="128" height="256" fill="#ae7a7b" data-original="#ae7a7b" class=""/>
</g>
<rect xmlns="http://www.w3.org/2000/svg" x="145.07" y="102.404" style="" width="221.867" height="375.467" fill="#9d6566" data-original="#9d6566" class=""/>
<g xmlns="http://www.w3.org/2000/svg">
	<polygon style="" points="366.937,110.937 145.07,110.937 128.003,76.804 384.004,76.804  " fill="#825154" data-original="#825154" class=""/>
	<rect x="8.537" y="469.337" style="" width="494.933" height="34.133" fill="#825154" data-original="#825154" class=""/>
</g>
<circle xmlns="http://www.w3.org/2000/svg" style="" cx="256.004" cy="213.337" r="59.733" fill="#ffffff" data-original="#ffffff"/>
<g xmlns="http://www.w3.org/2000/svg">
	<polygon style="" points="145.07,230.404 25.603,230.404 8.537,196.27 145.07,196.27  " fill="#825154" data-original="#825154" class=""/>
	<polygon style="" points="366.937,230.404 486.404,230.404 503.47,196.27 366.937,196.27  " fill="#825154" data-original="#825154" class=""/>
</g>
<rect xmlns="http://www.w3.org/2000/svg" x="204.803" y="366.937" style="" width="102.4" height="102.4" fill="#f6d295" data-original="#f6d295"/>
<rect xmlns="http://www.w3.org/2000/svg" x="187.737" y="341.337" style="" width="136.533" height="25.6" fill="#cca46a" data-original="#cca46a" class=""/>
<path xmlns="http://www.w3.org/2000/svg" style="" d="M256.004,307.204c-23.561,0-42.667,15.283-42.667,34.133h85.333  C298.67,322.487,279.573,307.204,256.004,307.204z" fill="#f6d295" data-original="#f6d295"/>
<g xmlns="http://www.w3.org/2000/svg">
	<rect x="59.737" y="264.537" style="" width="51.2" height="170.667" fill="#99b0dd" data-original="#99b0dd" class=""/>
	<rect x="401.07" y="264.537" style="" width="51.2" height="170.667" fill="#99b0dd" data-original="#99b0dd" class=""/>
</g>
<g xmlns="http://www.w3.org/2000/svg">
	<path style="" d="M366.937,119.47H145.07c-3.234,0-6.187-1.826-7.637-4.719l-17.067-34.133   c-1.323-2.645-1.178-5.786,0.375-8.303c1.562-2.509,4.301-4.045,7.262-4.045h256c2.961,0,5.7,1.536,7.262,4.045   c1.553,2.517,1.698,5.658,0.375,8.303l-17.067,34.133C373.124,117.644,370.171,119.47,366.937,119.47z M150.344,102.404h211.319   l8.533-17.067H141.81L150.344,102.404z" fill="#4d007e" data-original="#4d007e" class=""/>
	<path style="" d="M503.47,512.004H8.537c-4.71,0-8.533-3.823-8.533-8.533v-34.133c0-4.71,3.823-8.533,8.533-8.533   H503.47c4.71,0,8.533,3.823,8.533,8.533v34.133C512.004,508.181,508.181,512.004,503.47,512.004z M17.07,494.937h477.867V477.87   H17.07V494.937z" fill="#4d007e" data-original="#4d007e" class=""/>
	<path style="" d="M366.937,477.87H145.07c-4.71,0-8.533-3.823-8.533-8.533v-358.4c0-4.71,3.823-8.533,8.533-8.533   h221.867c4.71,0,8.533,3.823,8.533,8.533v358.4C375.47,474.047,371.647,477.87,366.937,477.87z M153.604,460.804h204.8V119.47   h-204.8V460.804z" fill="#4d007e" data-original="#4d007e" class=""/>
	<path style="" d="M145.07,477.87H25.603c-4.71,0-8.533-3.823-8.533-8.533V230.404c0-4.71,3.823-8.533,8.533-8.533   H145.07c4.71,0,8.533,3.823,8.533,8.533v238.933C153.604,474.047,149.781,477.87,145.07,477.87z M34.137,460.804h102.4V238.937   h-102.4V460.804z" fill="#4d007e" data-original="#4d007e" class=""/>
	<path style="" d="M486.404,477.87H366.937c-4.71,0-8.533-3.823-8.533-8.533V230.404c0-4.71,3.823-8.533,8.533-8.533   h119.467c4.71,0,8.533,3.823,8.533,8.533v238.933C494.937,474.047,491.114,477.87,486.404,477.87z M375.47,460.804h102.4V238.937   h-102.4V460.804z" fill="#4d007e" data-original="#4d007e" class=""/>
	<path style="" d="M256.004,281.604c-37.641,0-68.267-30.626-68.267-68.267s30.626-68.267,68.267-68.267   s68.267,30.626,68.267,68.267S293.644,281.604,256.004,281.604z M256.004,162.137c-28.228,0-51.2,22.963-51.2,51.2   s22.972,51.2,51.2,51.2c28.228,0,51.2-22.963,51.2-51.2S284.232,162.137,256.004,162.137z" fill="#4d007e" data-original="#4d007e" class=""/>
	<path style="" d="M256.004,221.87c-4.71,0-8.533-3.823-8.533-8.533v-25.6c0-4.71,3.823-8.533,8.533-8.533   c4.71,0,8.533,3.823,8.533,8.533v25.6C264.537,218.047,260.714,221.87,256.004,221.87z" fill="#4d007e" data-original="#4d007e" class=""/>
	<path style="" d="M273.07,221.87h-17.067c-4.71,0-8.533-3.823-8.533-8.533c0-4.71,3.823-8.533,8.533-8.533h17.067   c4.71,0,8.533,3.823,8.533,8.533C281.604,218.047,277.781,221.87,273.07,221.87z" fill="#4d007e" data-original="#4d007e" class=""/>
	<path style="" d="M256.004,85.337c-4.71,0-8.533-3.823-8.533-8.533V8.537c0-4.71,3.823-8.533,8.533-8.533   c4.71,0,8.533,3.823,8.533,8.533v68.267C264.537,81.514,260.714,85.337,256.004,85.337z" fill="#4d007e" data-original="#4d007e" class=""/>
	<path style="" d="M290.137,85.337c-4.71,0-8.533-3.823-8.533-8.533V42.67c0-4.71,3.823-8.533,8.533-8.533   s8.533,3.823,8.533,8.533v34.133C298.67,81.514,294.847,85.337,290.137,85.337z" fill="#4d007e" data-original="#4d007e" class=""/>
	<path style="" d="M221.87,85.337c-4.71,0-8.533-3.823-8.533-8.533V42.67c0-4.71,3.823-8.533,8.533-8.533   c4.71,0,8.533,3.823,8.533,8.533v34.133C230.404,81.514,226.581,85.337,221.87,85.337z" fill="#4d007e" data-original="#4d007e" class=""/>
	<path style="" d="M145.07,238.937H25.603c-3.234,0-6.187-1.826-7.637-4.719L0.899,200.085   c-1.323-2.645-1.178-5.786,0.375-8.303c1.562-2.509,4.301-4.045,7.262-4.045H145.07c4.71,0,8.533,3.823,8.533,8.533v34.133   C153.604,235.114,149.781,238.937,145.07,238.937z M30.877,221.87h105.66v-17.067H22.344L30.877,221.87z" fill="#4d007e" data-original="#4d007e" class=""/>
	<path style="" d="M486.404,238.937H366.937c-4.71,0-8.533-3.823-8.533-8.533V196.27c0-4.71,3.823-8.533,8.533-8.533   H503.47c2.961,0,5.7,1.536,7.262,4.045c1.553,2.517,1.698,5.658,0.375,8.303l-17.067,34.133   C492.59,237.111,489.638,238.937,486.404,238.937z M375.47,221.87h105.66l8.533-17.067H375.47V221.87z" fill="#4d007e" data-original="#4d007e" class=""/>
	<path style="" d="M307.204,477.87h-102.4c-4.71,0-8.533-3.823-8.533-8.533v-102.4c0-4.71,3.823-8.533,8.533-8.533   h102.4c4.71,0,8.533,3.823,8.533,8.533v102.4C315.737,474.047,311.914,477.87,307.204,477.87z M213.337,460.804h85.333V375.47   h-85.333V460.804z" fill="#4d007e" data-original="#4d007e" class=""/>
	<path style="" d="M324.27,375.47H187.737c-4.71,0-8.533-3.823-8.533-8.533v-25.6c0-4.71,3.823-8.533,8.533-8.533   H324.27c4.71,0,8.533,3.823,8.533,8.533v25.6C332.803,371.647,328.981,375.47,324.27,375.47z M196.27,358.404h119.467v-8.533   H196.27V358.404z" fill="#4d007e" data-original="#4d007e" class=""/>
	<path style="" d="M298.67,349.87h-85.333c-4.71,0-8.533-3.823-8.533-8.533c0-23.526,22.972-42.667,51.2-42.667   c28.228,0,51.2,19.14,51.2,42.667C307.204,346.047,303.381,349.87,298.67,349.87z M223.824,332.804h64.367   c-4.693-9.933-17.348-17.067-32.179-17.067C241.181,315.737,228.518,322.871,223.824,332.804z" fill="#4d007e" data-original="#4d007e" class=""/>
	<path style="" d="M273.07,426.67h-17.067c-4.71,0-8.533-3.823-8.533-8.533c0-4.71,3.823-8.533,8.533-8.533h17.067   c4.71,0,8.533,3.823,8.533,8.533C281.604,422.847,277.781,426.67,273.07,426.67z" fill="#4d007e" data-original="#4d007e" class=""/>
	<path style="" d="M110.937,443.737h-51.2c-4.71,0-8.533-3.823-8.533-8.533V264.537c0-4.71,3.823-8.533,8.533-8.533   h51.2c4.71,0,8.533,3.823,8.533,8.533v170.667C119.47,439.914,115.647,443.737,110.937,443.737z M68.27,426.67h34.133v-153.6H68.27   V426.67z" fill="#4d007e" data-original="#4d007e" class=""/>
	<path style="" d="M110.937,315.737h-51.2c-4.71,0-8.533-3.823-8.533-8.533s3.823-8.533,8.533-8.533h51.2   c4.71,0,8.533,3.823,8.533,8.533S115.647,315.737,110.937,315.737z" fill="#4d007e" data-original="#4d007e" class=""/>
	<path style="" d="M110.937,401.07h-51.2c-4.71,0-8.533-3.823-8.533-8.533s3.823-8.533,8.533-8.533h51.2   c4.71,0,8.533,3.823,8.533,8.533S115.647,401.07,110.937,401.07z" fill="#4d007e" data-original="#4d007e" class=""/>
	<path style="" d="M110.937,358.404h-51.2c-4.71,0-8.533-3.823-8.533-8.533s3.823-8.533,8.533-8.533h51.2   c4.71,0,8.533,3.823,8.533,8.533S115.647,358.404,110.937,358.404z" fill="#4d007e" data-original="#4d007e" class=""/>
	<path style="" d="M452.27,443.737h-51.2c-4.71,0-8.533-3.823-8.533-8.533V264.537c0-4.71,3.823-8.533,8.533-8.533   h51.2c4.71,0,8.533,3.823,8.533,8.533v170.667C460.804,439.914,456.981,443.737,452.27,443.737z M409.604,426.67h34.133v-153.6   h-34.133V426.67z" fill="#4d007e" data-original="#4d007e" class=""/>
	<path style="" d="M452.27,315.737h-51.2c-4.71,0-8.533-3.823-8.533-8.533s3.823-8.533,8.533-8.533h51.2   c4.71,0,8.533,3.823,8.533,8.533S456.981,315.737,452.27,315.737z" fill="#4d007e" data-original="#4d007e" class=""/>
	<path style="" d="M452.27,401.07h-51.2c-4.71,0-8.533-3.823-8.533-8.533s3.823-8.533,8.533-8.533h51.2   c4.71,0,8.533,3.823,8.533,8.533S456.981,401.07,452.27,401.07z" fill="#4d007e" data-original="#4d007e" class=""/>
	<path style="" d="M452.27,358.404h-51.2c-4.71,0-8.533-3.823-8.533-8.533s3.823-8.533,8.533-8.533h51.2   c4.71,0,8.533,3.823,8.533,8.533S456.981,358.404,452.27,358.404z" fill="#4d007e" data-original="#4d007e" class=""/>
</g>
<g xmlns="http://www.w3.org/2000/svg">
</g>
<g xmlns="http://www.w3.org/2000/svg">
</g>
<g xmlns="http://www.w3.org/2000/svg">
</g>
<g xmlns="http://www.w3.org/2000/svg">
</g>
<g xmlns="http://www.w3.org/2000/svg">
</g>
<g xmlns="http://www.w3.org/2000/svg">
</g>
<g xmlns="http://www.w3.org/2000/svg">
</g>
<g xmlns="http://www.w3.org/2000/svg">
</g>
<g xmlns="http://www.w3.org/2000/svg">
</g>
<g xmlns="http://www.w3.org/2000/svg">
</g>
<g xmlns="http://www.w3.org/2000/svg">
</g>
<g xmlns="http://www.w3.org/2000/svg">
</g>
<g xmlns="http://www.w3.org/2000/svg">
</g>
<g xmlns="http://www.w3.org/2000/svg">
</g>
<g xmlns="http://www.w3.org/2000/svg">
</g>
<script/></g></svg>
