<?xml version="1.0"?>
<svg xmlns="http://www.w3.org/2000/svg" xmlns:xlink="http://www.w3.org/1999/xlink" xmlns:svgjs="http://svgjs.com/svgjs" version="1.1" width="512" height="512" x="0" y="0" viewBox="0 0 492.217 492.217" style="enable-background:new 0 0 512 512" xml:space="preserve" class=""><g>
<g xmlns="http://www.w3.org/2000/svg">
	<g>
		<circle cx="202.486" cy="55.307" r="7.157" fill="#ffffff" data-original="#000000" style="" class=""/>
		<circle cx="171.131" cy="55.308" r="13.041" fill="#ffffff" data-original="#000000" style="" class=""/>
		<path d="M384.412,227.329h-12.314V46.147c0-23.667-19.186-42.854-42.854-42.854h-166.27c-23.667,0-42.854,19.188-42.854,42.854    v181.182h-12.317C48.361,227.329,0,275.688,0,335.132c0,59.44,48.36,107.804,107.803,107.804h92.546v33.246    c0,5.172,3.088,9.795,7.867,11.773c1.553,0.643,3.193,0.969,4.871,0.969c3.407,0,6.608-1.326,9.014-3.732l55.445-55.443    c2.407-2.406,3.731-5.607,3.731-9.012s-1.324-6.602-3.731-9.01l-55.445-55.445c-2.405-2.406-5.606-3.73-9.014-3.73    c-1.678,0-3.318,0.325-4.873,0.969c-4.777,1.979-7.865,6.603-7.865,11.773v33.246h-92.546c-34.963,0-63.407-28.443-63.407-63.406    c0-34.964,28.444-63.406,63.407-63.406h12.317v92.393c0,4.249,0.628,8.348,1.779,12.224h56.252v-11.049    c0-14.185,8.466-26.854,21.568-32.282c4.266-1.765,8.761-2.658,13.367-2.658c9.337,0,18.114,3.635,24.713,10.235l55.441,55.442    c3.197,3.197,5.691,6.908,7.42,10.941h28.582c23.668,0,42.854-19.188,42.854-42.854v-92.393h12.316    c34.963,0,63.408,28.442,63.408,63.406c0,34.963-28.445,63.406-63.408,63.406c-12.238,0-22.197,9.957-22.197,22.197    s9.959,22.199,22.197,22.199c59.443,0,107.805-48.361,107.805-107.804C492.217,275.688,443.857,227.329,384.412,227.329z     M169.466,30.613h29.413c13.638,0,24.694,11.056,24.694,24.695c0,13.638-11.057,24.695-24.694,24.695h-29.413    c-13.638,0-24.694-11.058-24.694-24.695C144.772,41.669,155.829,30.613,169.466,30.613z" fill="#ffffff" data-original="#000000" style="" class=""/>
	</g>
</g>
<g xmlns="http://www.w3.org/2000/svg">
</g>
<g xmlns="http://www.w3.org/2000/svg">
</g>
<g xmlns="http://www.w3.org/2000/svg">
</g>
<g xmlns="http://www.w3.org/2000/svg">
</g>
<g xmlns="http://www.w3.org/2000/svg">
</g>
<g xmlns="http://www.w3.org/2000/svg">
</g>
<g xmlns="http://www.w3.org/2000/svg">
</g>
<g xmlns="http://www.w3.org/2000/svg">
</g>
<g xmlns="http://www.w3.org/2000/svg">
</g>
<g xmlns="http://www.w3.org/2000/svg">
</g>
<g xmlns="http://www.w3.org/2000/svg">
</g>
<g xmlns="http://www.w3.org/2000/svg">
</g>
<g xmlns="http://www.w3.org/2000/svg">
</g>
<g xmlns="http://www.w3.org/2000/svg">
</g>
<g xmlns="http://www.w3.org/2000/svg">
</g>
<script/></g></svg>
