<?xml version="1.0"?>
<svg xmlns="http://www.w3.org/2000/svg" xmlns:xlink="http://www.w3.org/1999/xlink" xmlns:svgjs="http://svgjs.com/svgjs" version="1.1" width="512" height="512" x="0" y="0" viewBox="0 0 463 463" style="enable-background:new 0 0 512 512" xml:space="preserve" class=""><g>
<path xmlns="http://www.w3.org/2000/svg" d="M395.195,67.805C351.47,24.08,293.336,0,231.5,0S111.529,24.08,67.805,67.805S0,169.664,0,231.5  S24.08,351.47,67.805,395.195S169.664,463,231.5,463s119.97-24.08,163.695-67.805S463,293.335,463,231.5  S438.919,111.529,395.195,67.805z M384.588,78.411C425.479,119.303,448,173.67,448,231.5c0,55.321-20.622,107.466-58.208,147.685  l-91.914-91.914l31.017-51.695c4.213-7.022,4.32-15.469,0.285-22.595s-11.333-11.38-19.521-11.38h-69.304l21.946-131.677  c1.199-7.197-2.745-13.984-9.592-16.505c-6.848-2.519-14.251,0.089-18.004,6.345l-61.625,102.709L83.815,73.208  C124.033,35.622,176.179,15,231.5,15C289.329,15,343.697,37.52,384.588,78.411z M237.223,249.052  c-1.425-1.682-3.518-2.652-5.723-2.652h-78.158c-3.911,0-5.827-2.637-6.469-3.771c-0.642-1.134-1.917-4.133,0.095-7.486  l29.088-48.48l102.933,102.933l-63.464,105.774l23.373-140.237C239.26,252.958,238.647,250.734,237.223,249.052z M184.011,173.404  l63.464-105.773l-23.373,140.236c-0.362,2.174,0.25,4.398,1.675,6.081s3.518,2.652,5.723,2.652h78.158  c3.911,0,5.827,2.637,6.469,3.771c0.642,1.134,1.917,4.133-0.095,7.487l-29.088,48.48L184.011,173.404z M78.411,384.588  C37.52,343.697,15,289.329,15,231.5c0-55.322,20.622-107.466,58.208-147.685l91.914,91.914l-31.017,51.695  c-4.213,7.022-4.32,15.468-0.285,22.595c4.035,7.126,11.332,11.38,19.521,11.38h69.305L200.7,393.076  c-1.199,7.197,2.745,13.985,9.592,16.505c1.747,0.644,3.53,0.953,5.279,0.953c5.107,0,9.929-2.637,12.725-7.297l61.625-102.709  l89.263,89.262C338.966,427.377,286.822,448,231.5,448C173.671,448,119.303,425.479,78.411,384.588z" fill="#ffffff" data-original="#000000" style=""/>
<g xmlns="http://www.w3.org/2000/svg">
</g>
<g xmlns="http://www.w3.org/2000/svg">
</g>
<g xmlns="http://www.w3.org/2000/svg">
</g>
<g xmlns="http://www.w3.org/2000/svg">
</g>
<g xmlns="http://www.w3.org/2000/svg">
</g>
<g xmlns="http://www.w3.org/2000/svg">
</g>
<g xmlns="http://www.w3.org/2000/svg">
</g>
<g xmlns="http://www.w3.org/2000/svg">
</g>
<g xmlns="http://www.w3.org/2000/svg">
</g>
<g xmlns="http://www.w3.org/2000/svg">
</g>
<g xmlns="http://www.w3.org/2000/svg">
</g>
<g xmlns="http://www.w3.org/2000/svg">
</g>
<g xmlns="http://www.w3.org/2000/svg">
</g>
<g xmlns="http://www.w3.org/2000/svg">
</g>
<g xmlns="http://www.w3.org/2000/svg">
</g>
<script/></g></svg>
