<?xml version="1.0"?>
<svg xmlns="http://www.w3.org/2000/svg" xmlns:xlink="http://www.w3.org/1999/xlink" xmlns:svgjs="http://svgjs.com/svgjs" version="1.1" width="512" height="512" x="0" y="0" viewBox="0 0 512 512" style="enable-background:new 0 0 512 512" xml:space="preserve" class=""><g><path xmlns="http://www.w3.org/2000/svg" d="m206.964844 406.355469h98.070312v54.226562h-98.070312zm0 0" fill="#2c6a9b" data-original="#2c6a9b" style=""/><path xmlns="http://www.w3.org/2000/svg" d="m206.96875 406.355469h98.0625v16.878906h-98.0625zm0 0" fill="#1a5a84" data-original="#1a5a84" style=""/><path xmlns="http://www.w3.org/2000/svg" d="m351.335938 473.945312h-190.671876c-4.996093 0-9.042968-4.046874-9.042968-9.039062 0-4.996094 4.046875-9.042969 9.042968-9.042969h190.671876c4.996093 0 9.042968 4.046875 9.042968 9.042969 0 4.992188-4.046875 9.039062-9.042968 9.039062zm0 0" fill="#dceeef" data-original="#dceeef" style=""/><path xmlns="http://www.w3.org/2000/svg" d="m504.5 76.964844v322.070312c0 5.640625-4.570312 10.199219-10.210938 10.199219h-476.578124c-5.640626 0-10.210938-4.558594-10.210938-10.199219v-322.070312c0-8.449219 6.859375-15.300782 15.308594-15.300782h466.382812c8.457032 0 15.308594 6.851563 15.308594 15.300782zm0 0" fill="#dceeef" data-original="#dceeef" style=""/><path xmlns="http://www.w3.org/2000/svg" d="m504.5 76.964844v322.070312c0 5.640625-4.570312 10.199219-10.210938 10.199219h-22.199218c5.640625 0 10.210937-4.558594 10.210937-10.199219v-322.070312c0-8.4375-6.859375-15.300782-15.3125-15.300782h22.203125c8.457032 0 15.308594 6.851563 15.308594 15.300782zm0 0" fill="#bcdde2" data-original="#bcdde2" style=""/><path xmlns="http://www.w3.org/2000/svg" d="m504.5 360.296875v38.738281c0 5.640625-4.570312 10.199219-10.199219 10.199219h-476.601562c-5.628907 0-10.199219-4.558594-10.199219-10.199219v-38.738281zm0 0" fill="#3b7ca8" data-original="#3b7ca8" style=""/><path xmlns="http://www.w3.org/2000/svg" d="m504.5 360.296875v38.738281c0 5.640625-4.570312 10.199219-10.199219 10.199219h-22.210937c5.640625 0 10.210937-4.558594 10.210937-10.199219v-38.738281zm0 0" fill="#2c6a9b" data-original="#2c6a9b" style=""/><path xmlns="http://www.w3.org/2000/svg" d="m504.5 76.964844v21.839844h-497v-21.839844c0-8.453125 6.859375-15.300782 15.308594-15.300782h466.382812c8.457032 0 15.308594 6.847657 15.308594 15.300782zm0 0" fill="#8bc1c6" data-original="#8bc1c6" style=""/><path xmlns="http://www.w3.org/2000/svg" d="m223.949219 360.300781h-156.683594v-56.253906c0-5.523437 4.476563-10 10-10h136.683594c5.523437 0 10 4.476563 10 10zm0 0" fill="#40e464" data-original="#40e464" style=""/><path xmlns="http://www.w3.org/2000/svg" d="m67.265625 41.5625v130.527344c0 5.519531 4.476563 10 10 10h100.378906l29.234375 29.230468c6.296875 6.300782 17.070313 1.839844 17.070313-7.070312v-162.6875c0-5.523438-4.476563-10-10-10h-136.683594c-5.523437 0-10 4.476562-10 10zm0 0" fill="#40e464" data-original="#40e464" style=""/><path xmlns="http://www.w3.org/2000/svg" d="m445.628906 180.867188v92.597656c0 5.523437-4.476562 10-10 10h-100.375l-29.234375 29.234375c-6.300781 6.300781-17.074219 1.839843-17.074219-7.070313v-124.761718c0-5.523438 4.480469-10 10-10h136.683594c5.523438 0 10 4.476562 10 10zm0 0" fill="#3bc3ff" data-original="#3bc3ff" style="" class=""/><path xmlns="http://www.w3.org/2000/svg" d="m489.191406 54.164062h-257.742187v-12.601562c0-9.648438-7.851563-17.5-17.5-17.5h-136.683594c-9.648437 0-17.5 7.851562-17.5 17.5v12.601562h-36.957031c-12.578125 0-22.808594 10.230469-22.808594 22.800782v94.980468c0 4.144532 3.359375 7.5 7.5 7.5s7.5-3.355468 7.5-7.5v-65.644531h44.765625v65.785157c0 9.648437 7.851563 17.5 17.5 17.5h97.269531l27.039063 27.039062c3.355469 3.355469 7.8125 5.132812 12.355469 5.132812 2.257812 0 4.539062-.4375 6.714843-1.339843 6.5625-2.71875 10.804688-9.0625 10.804688-16.167969v-47.640625c0-4.144531-3.359375-7.5-7.5-7.5-4.144531 0-7.5 3.355469-7.5 7.5v47.640625c0 1.453125-.96875 2.070312-1.542969 2.308594-.578125.242187-1.695312.488281-2.726562-.539063l-29.234376-29.234375c-1.40625-1.40625-3.3125-2.195312-5.300781-2.195312h-100.378906c-1.378906 0-2.5-1.121094-2.5-2.5v-130.527344c0-1.378906 1.121094-2.5 2.5-2.5h136.683594c1.378906 0 2.5 1.121094 2.5 2.5v82.386719c0 4.144531 3.359375 7.5 7.5 7.5s7.5-3.355469 7.5-7.5v-17.644531h265.550781v246.496093h-265.550781v-48.753906c0-9.648437-7.851563-17.5-17.5-17.5h-136.683594c-9.648437 0-17.5 7.851563-17.5 17.5v48.753906h-44.765625v-148.191406c0-4.144531-3.359375-7.5-7.5-7.5s-7.5 3.355469-7.5 7.5v194.425781c0 9.761719 7.945312 17.699219 17.710938 17.699219h181.757812v31.628906h-38.804688c-9.121093 0-16.542968 7.421875-16.542968 16.542969s7.421875 16.542969 16.542968 16.542969h190.671876c9.121093 0 16.542968-7.421875 16.542968-16.542969s-7.421875-16.542969-16.542968-16.542969h-38.804688v-31.628906h61.273438c4.144531 0 7.5-3.355469 7.5-7.5 0-4.140625-3.355469-7.5-7.5-7.5h-356.09375c-1.496094 0-2.710938-1.210937-2.710938-2.699219v-31.234375h482v31.234375c0 1.488282-1.214844 2.699219-2.710938 2.699219h-87.820312c-4.144531 0-7.5 3.359375-7.5 7.5 0 4.144531 3.355469 7.5 7.5 7.5h87.820312c9.765626 0 17.710938-7.9375 17.710938-17.699219v-322.070312c0-12.570313-10.230469-22.800782-22.808594-22.800782zm-474.191406 37.140626v-14.339844c0-4.300782 3.503906-7.800782 7.808594-7.800782h36.957031v22.140626zm337.878906 373.601562c0 .851562-.691406 1.542969-1.542968 1.542969h-190.671876c-.851562 0-1.542968-.691407-1.542968-1.542969s.691406-1.542969 1.542968-1.542969h190.671876c.851562 0 1.542968.691407 1.542968 1.542969zm-55.347656-16.542969h-83.0625v-31.628906h83.0625zm-222.765625-144.316406c0-1.382813 1.121094-2.5 2.5-2.5h136.683594c1.378906 0 2.5 1.117187 2.5 2.5v48.753906h-141.683594zm156.683594-212.742187v-22.140626h257.742187c4.304688 0 7.808594 3.5 7.808594 7.800782v14.339844zm0 0" fill="#000000" data-original="#000000" style="" class=""/><path xmlns="http://www.w3.org/2000/svg" d="m281.445312 180.867188v124.761718c0 7.105469 4.242188 13.449219 10.804688 16.167969 2.179688.902344 4.457031 1.339844 6.714844 1.339844 4.542968 0 9-1.777344 12.355468-5.132813l27.039063-27.035156h97.269531c9.648438 0 17.5-7.851562 17.5-17.5v-92.601562c0-9.648438-7.851562-17.5-17.5-17.5h-136.683594c-9.648437 0-17.5 7.851562-17.5 17.5zm156.683594 0v92.601562c0 1.378906-1.121094 2.5-2.5 2.5h-100.375c-1.992187 0-3.898437.789062-5.304687 2.195312l-29.234375 29.230469c-1.027344 1.03125-2.148438.78125-2.726563.542969-.574219-.238281-1.542969-.855469-1.542969-2.308594v-124.761718c0-1.378907 1.125-2.5 2.5-2.5h136.683594c1.378906 0 2.5 1.121093 2.5 2.5zm0 0" fill="#000000" data-original="#000000" style="" class=""/><path xmlns="http://www.w3.org/2000/svg" d="m409.785156 145.484375v-.503906c0-4.144531-3.359375-7.5-7.5-7.5s-7.5 3.355469-7.5 7.5v.503906c0 4.144531 3.359375 7.5 7.5 7.5s7.5-3.355469 7.5-7.5zm0 0" fill="#000000" data-original="#000000" style="" class=""/><path xmlns="http://www.w3.org/2000/svg" d="m445.628906 153.089844c4.144532 0 7.5-3.359375 7.5-7.5 0-4.144532-3.355468-7.5-7.5-7.5h-21.304687c-4.140625 0-7.5 3.355468-7.5 7.5 0 4.140625 3.359375 7.5 7.5 7.5zm0 0" fill="#000000" data-original="#000000" style="" class=""/><path xmlns="http://www.w3.org/2000/svg" d="m149.714844 15.507812c4.140625 0 7.5-3.359374 7.5-7.5v-.507812c0-4.144531-3.359375-7.5-7.5-7.5s-7.5 3.355469-7.5 7.5v.507812c0 4.140626 3.359375 7.5 7.5 7.5zm0 0" fill="#000000" data-original="#000000" style="" class=""/><path xmlns="http://www.w3.org/2000/svg" d="m66.371094 15.609375h61.304687c4.140625 0 7.5-3.355469 7.5-7.5 0-4.140625-3.359375-7.5-7.5-7.5h-61.304687c-4.144532 0-7.5 3.359375-7.5 7.5 0 4.144531 3.355468 7.5 7.5 7.5zm0 0" fill="#000000" data-original="#000000" style="" class=""/><path xmlns="http://www.w3.org/2000/svg" d="m157.214844 269.550781v-.507812c0-4.140625-3.359375-7.5-7.5-7.5s-7.5 3.359375-7.5 7.5v.507812c0 4.140625 3.359375 7.5 7.5 7.5s7.5-3.359375 7.5-7.5zm0 0" fill="#000000" data-original="#000000" style="" class=""/><path xmlns="http://www.w3.org/2000/svg" d="m66.371094 277.152344h61.304687c4.140625 0 7.5-3.355469 7.5-7.5 0-4.140625-3.359375-7.5-7.5-7.5h-61.304687c-4.144532 0-7.5 3.359375-7.5 7.5 0 4.144531 3.355468 7.5 7.5 7.5zm0 0" fill="#000000" data-original="#000000" style="" class=""/><path xmlns="http://www.w3.org/2000/svg" d="m321.765625 210.90625h.457031c4.144532 0 7.5-3.355469 7.5-7.5 0-4.140625-3.355468-7.5-7.5-7.5h-.457031c-4.140625 0-7.5 3.359375-7.5 7.5 0 4.144531 3.359375 7.5 7.5 7.5zm0 0" fill="#000000" data-original="#000000" style="" class=""/><path xmlns="http://www.w3.org/2000/svg" d="m345.996094 210.679688h66.902344c4.144531 0 7.5-3.359376 7.5-7.5 0-4.144532-3.355469-7.5-7.5-7.5h-66.90625c-4.140626 0-7.5 3.355468-7.5 7.5 0 4.140624 3.359374 7.5 7.503906 7.5zm0 0" fill="#000000" data-original="#000000" style="" class=""/><path xmlns="http://www.w3.org/2000/svg" d="m321.765625 256.058594h.457031c4.144532 0 7.5-3.355469 7.5-7.5 0-4.140625-3.355468-7.5-7.5-7.5h-.457031c-4.140625 0-7.5 3.359375-7.5 7.5 0 4.144531 3.359375 7.5 7.5 7.5zm0 0" fill="#000000" data-original="#000000" style="" class=""/><path xmlns="http://www.w3.org/2000/svg" d="m412.898438 240.828125h-66.90625c-4.140626 0-7.5 3.359375-7.5 7.5 0 4.144531 3.359374 7.5 7.5 7.5h66.90625c4.144531 0 7.5-3.355469 7.5-7.5 0-4.140625-3.355469-7.5-7.5-7.5zm0 0" fill="#000000" data-original="#000000" style="" class=""/><path xmlns="http://www.w3.org/2000/svg" d="m412.898438 218.496094h-.457032c-4.140625 0-7.5 3.355468-7.5 7.5 0 4.140625 3.359375 7.5 7.5 7.5h.457032c4.144531 0 7.5-3.359375 7.5-7.5 0-4.144532-3.355469-7.5-7.5-7.5zm0 0" fill="#000000" data-original="#000000" style="" class=""/><path xmlns="http://www.w3.org/2000/svg" d="m321.765625 233.265625h66.90625c4.140625 0 7.5-3.355469 7.5-7.5s-3.359375-7.5-7.5-7.5h-66.90625c-4.140625 0-7.5 3.355469-7.5 7.5s3.359375 7.5 7.5 7.5zm0 0" fill="#000000" data-original="#000000" style="" class=""/><path xmlns="http://www.w3.org/2000/svg" d="m99.023438 69.382812h.457031c4.140625 0 7.5-3.355468 7.5-7.5 0-4.144531-3.359375-7.5-7.5-7.5h-.457031c-4.144532 0-7.5 3.355469-7.5 7.5 0 4.144532 3.355468 7.5 7.5 7.5zm0 0" fill="#000000" data-original="#000000" style="" class=""/><path xmlns="http://www.w3.org/2000/svg" d="m190.15625 54.164062h-66.90625c-4.140625 0-7.5 3.355469-7.5 7.5 0 4.140626 3.359375 7.5 7.5 7.5h66.90625c4.144531 0 7.5-3.359374 7.5-7.5 0-4.144531-3.355469-7.5-7.5-7.5zm0 0" fill="#000000" data-original="#000000" style="" class=""/><path xmlns="http://www.w3.org/2000/svg" d="m190.15625 97.535156h-90.675781c-4.140625 0-7.5 3.355469-7.5 7.5 0 4.140625 3.359375 7.5 7.5 7.5h90.675781c4.144531 0 7.5-3.359375 7.5-7.5 0-4.144531-3.355469-7.5-7.5-7.5zm0 0" fill="#000000" data-original="#000000" style="" class=""/><path xmlns="http://www.w3.org/2000/svg" d="m99.023438 90.859375h90.90625c4.140624 0 7.5-3.355469 7.5-7.5s-3.359376-7.5-7.5-7.5h-90.90625c-4.144532 0-7.5 3.355469-7.5 7.5s3.355468 7.5 7.5 7.5zm0 0" fill="#000000" data-original="#000000" style="" class=""/><path xmlns="http://www.w3.org/2000/svg" d="m99.023438 141.574219c-4.144532 0-7.5 3.355469-7.5 7.5 0 4.140625 3.355468 7.5 7.5 7.5h.457031c4.140625 0 7.5-3.359375 7.5-7.5 0-4.144531-3.359375-7.5-7.5-7.5zm0 0" fill="#000000" data-original="#000000" style="" class=""/><path xmlns="http://www.w3.org/2000/svg" d="m123.25 156.351562h66.90625c4.144531 0 7.5-3.355468 7.5-7.5 0-4.140624-3.355469-7.5-7.5-7.5h-66.90625c-4.140625 0-7.5 3.359376-7.5 7.5 0 4.144532 3.359375 7.5 7.5 7.5zm0 0" fill="#000000" data-original="#000000" style="" class=""/><path xmlns="http://www.w3.org/2000/svg" d="m190.15625 119.898438h-.457031c-4.140625 0-7.5 3.359374-7.5 7.5 0 4.144531 3.359375 7.5 7.5 7.5h.457031c4.144531 0 7.5-3.355469 7.5-7.5 0-4.140626-3.355469-7.5-7.5-7.5zm0 0" fill="#000000" data-original="#000000" style="" class=""/><path xmlns="http://www.w3.org/2000/svg" d="m173.429688 127.179688c0-4.144532-3.359376-7.5-7.5-7.5h-66.90625c-4.144532 0-7.5 3.355468-7.5 7.5 0 4.140624 3.355468 7.5 7.5 7.5h66.90625c4.140624 0 7.5-3.359376 7.5-7.5zm0 0" fill="#000000" data-original="#000000" style="" class=""/><path xmlns="http://www.w3.org/2000/svg" d="m99.480469 323.855469h-.457031c-4.144532 0-7.5 3.355469-7.5 7.5 0 4.140625 3.355468 7.5 7.5 7.5h.457031c4.140625 0 7.5-3.359375 7.5-7.5 0-4.144531-3.359375-7.5-7.5-7.5zm0 0" fill="#000000" data-original="#000000" style="" class=""/><path xmlns="http://www.w3.org/2000/svg" d="m190.15625 323.632812h-66.90625c-4.140625 0-7.5 3.355469-7.5 7.5 0 4.144532 3.359375 7.5 7.5 7.5h66.90625c4.144531 0 7.5-3.355468 7.5-7.5 0-4.144531-3.355469-7.5-7.5-7.5zm0 0" fill="#000000" data-original="#000000" style="" class=""/><script/></g></svg>
